<svg xmlns="http://www.w3.org/2000/svg" width="512" height="512">
  <path fill="#704e56" d="M32.027 312.926C11.673 329.863 0 354.764 0 381.243h29.967c0-17.551 7.737-34.055 21.228-45.281l8.535-7.08v152.351l29.941 14.995V303.946l54.652-45.455v155.811l29.941 15.014V233.555l54.349-45.203v154.024l29.941 18.373V163.415l21.532-17.908 10.734-26.357-10.734-12.637z"/>
  <path fill="#5a364b" d="M407.682.336L280.084 106.513v38.994l32.685-27.184v144.134l29.94 14.311V93.387l55.435-46.106v135.258l29.94 14.311V30.304H512V.336z"/>
  <g>
    <path fill="#f7ecda" d="M228.612 342.375v71.927h-84.289v66.931H59.73v30.431h220.354l27.248-79.363-27.248-89.926z"/>
    <path fill="#ecd6b2" d="M512 182.539H398.144v79.918h-85.375v79.918h-32.685v169.289H512z"/>
  </g>
</svg>
