<svg id="Ebene_1" xmlns="http://www.w3.org/2000/svg" viewBox="0 0 190 70"><style>.st0{fill:#004f38}</style><path class="st0" d="M148.053 48.592c-9.726-1.422-16.969-6.14-19.875-12.949-1.198-2.805-1.778-5.837-1.754-9.275v-.015c-.024-3.457.567-6.61 1.748-9.384 2.906-6.797 10.155-11.519 19.881-12.947 5.845-.857 13.314-.264 16.643.316 11.841 2.042 17.826 5.895 18.397 11.716h-16.097c-2.235-2.452-4.368-4.065-10.759-4.065-8.905 0-12.958 5.025-12.958 9.685v.893h22.69c0 1.306.006 6.18.006 7.48h-22.696v.891c0 4.668 4.052 9.689 12.958 9.689 6.391 0 8.53-1.617 10.759-4.069h16.097c-.571 5.82-6.556 9.683-18.397 11.723-3.325.578-10.781 1.166-16.643.311m-64.664.46c-9.893-1.443-17.276-6.266-20.25-13.224-1.226-2.865-1.817-5.963-1.787-9.462-.03-3.526.573-6.747 1.787-9.575C66.109 9.837 73.49 5.01 83.389 3.558c5.897-.859 13.422-.264 16.78.32 12.431 2.145 18.569 6.303 18.833 12.657h-16.821c-2.201-2.455-4.207-4.065-10.557-4.065-8.564 0-12.472 4.774-12.472 9.213l.011 9.256c0 4.434 3.904 9.206 12.462 9.206 6.361 0 8.149-1.224 10.458-3.827 1.13-1.269 1.267-3.668 1.267-4.782 0-.341-.006-.556-.011-.59l-.03-.395s-14.849-.026-15.633-.026v-8.429h32.231c.047.758.15 2.663.15 4.913 0 2.994-.189 6.513-.975 8.502l-.326.868c-1.656 4.364-3.709 9.792-18.586 12.365-3.366.578-10.89 1.173-16.781.308m-60.259-.46c-9.719-1.422-16.969-6.14-19.875-12.949-1.211-2.807-1.778-5.841-1.754-9.275v-.015c-.024-3.449.567-6.61 1.754-9.384C6.161 10.172 13.41 5.45 23.13 4.022c5.845-.857 13.314-.264 16.649.316C51.613 6.38 57.598 10.232 58.17 16.054H42.072c-2.235-2.452-4.368-4.065-10.759-4.065-8.905 0-12.958 5.025-12.958 9.685v.893h22.69v7.48h-22.69v.891c0 4.668 4.052 9.689 12.958 9.689 6.397 0 8.527-1.617 10.759-4.069H58.17c-.571 5.82-6.556 9.683-18.391 11.723-3.329.578-10.791 1.166-16.649.311M18.418 61.72h3.668v.717h-2.933v2.291h2.933v.717h-2.933v3.59h-.734V61.72zm5.453 0h4.194v.717h-3.457v2.291h3.43v.717h-3.43v2.876h3.43v.715h-4.166V61.72zm5.967 7.316V61.72h.161l4.868 5.609V61.72h.724v7.316h-.165l-4.83-5.538v5.538h-.758zm7.289-1.362l.618-.374c.438.805.945 1.207 1.52 1.207.243 0 .475-.058.692-.17.215-.114.376-.269.492-.46a1.22 1.22 0 0 0 .165-.614c0-.245-.084-.485-.249-.72-.228-.324-.646-.717-1.25-1.174-.612-.46-.994-.793-1.143-.997a1.848 1.848 0 0 1-.387-1.119c0-.322.077-.612.232-.872a1.59 1.59 0 0 1 .64-.619c.277-.152.58-.228.906-.228.344 0 .664.086.969.256.296.172.612.485.949.943l-.597.453c-.275-.365-.509-.606-.702-.722a1.23 1.23 0 0 0-.634-.174c-.298 0-.537.09-.726.266a.889.889 0 0 0-.281.664c0 .159.034.314.101.462.064.15.187.311.363.489.095.09.41.335.945.728.631.468 1.067.885 1.306 1.25.232.365.348.732.348 1.099 0 .53-.2.992-.603 1.381a2.02 2.02 0 0 1-1.469.588 2.17 2.17 0 0 1-1.211-.356c-.359-.233-.689-.63-.994-1.187zm5.609-5.237v-.717h4.005v.717h-1.63v6.599h-.745v-6.599h-1.63zm5.575-.717h4.194v.717h-3.459v2.291h3.432v.717h-3.432v2.876h3.432v.715h-4.166V61.72zm6.006 0h1.458c.814 0 1.359.034 1.654.101.429.099.784.311 1.054.64.27.327.408.73.408 1.207 0 .4-.092.75-.281 1.05-.187.305-.453.53-.801.685-.348.155-.829.232-1.441.238l2.628 3.395h-.906l-2.628-3.395h-.415v3.395h-.73V61.72zm.73.717v2.485l1.258.013c.492 0 .853-.047 1.085-.14.236-.092.419-.243.552-.444.127-.204.193-.434.193-.685 0-.245-.067-.466-.2-.668a1.084 1.084 0 0 0-.52-.432c-.219-.086-.573-.129-1.076-.129h-1.292zm9.769 2.328c.172 0 .313.058.436.18a.6.6 0 0 1 .176.436.6.6 0 0 1-.176.434.59.59 0 0 1-.436.183.59.59 0 0 1-.432-.183.584.584 0 0 1-.176-.434c0-.172.056-.318.176-.436a.591.591 0 0 1 .432-.18zm5.409-2.328v-.717h4.011v.717h-1.63v6.599h-.745v-6.599h-1.636zm5.596-.717h.737v4.417c0 .524.004.85.026.979.041.29.122.53.256.724.133.193.337.356.612.49.273.129.554.195.829.195.245 0 .477-.051.698-.155.221-.101.408-.245.558-.427a1.72 1.72 0 0 0 .324-.661c.049-.187.077-.569.077-1.145V61.72h.73v4.417c0 .653-.066 1.181-.193 1.585-.127.404-.382.754-.762 1.052-.387.298-.846.447-1.394.447-.591 0-1.093-.139-1.514-.421a1.993 1.993 0 0 1-.844-1.121c-.095-.286-.14-.799-.14-1.542V61.72zm1.411-1.716c.159 0 .292.058.408.17.11.114.165.249.165.408a.57.57 0 0 1-.573.578.567.567 0 0 1-.575-.578.57.57 0 0 1 .575-.578zm2.028 0c.159 0 .299.058.408.17a.568.568 0 0 1 .172.408c0 .161-.06.296-.172.41a.562.562 0 0 1-.408.168.567.567 0 0 1-.575-.578.57.57 0 0 1 .575-.578zm3.755 1.716h1.46c.812 0 1.359.034 1.651.101a1.87 1.87 0 0 1 1.056.64c.271.327.408.73.408 1.207 0 .4-.095.75-.281 1.05-.189.305-.453.53-.801.685-.348.155-.829.232-1.443.238l2.631 3.395h-.906l-2.631-3.395h-.414v3.395h-.73V61.72zm.731.717v2.485l1.26.013c.492 0 .85-.047 1.082-.14.238-.092.421-.243.552-.444.129-.204.193-.434.193-.685 0-.245-.064-.466-.198-.668a1.102 1.102 0 0 0-.52-.432c-.221-.086-.575-.129-1.078-.129h-1.291zm5.929-.717h4.19v.717h-3.459v2.291h3.431v.717h-3.431v2.876h3.431v.715h-4.162V61.72zm5.967 7.316V61.72h.161l4.868 5.609V61.72h.724v7.316h-.167l-4.83-5.538v5.538h-.756zm11.891-4.271a.58.58 0 0 1 .432.18c.12.118.183.264.183.436 0 .17-.062.316-.183.434a.581.581 0 0 1-.432.183.57.57 0 0 1-.431-.183.588.588 0 0 1-.181-.434c0-.172.06-.318.181-.436a.569.569 0 0 1 .431-.18zm6.133-3.045h3.67v.717h-2.933v2.291h2.933v.717h-2.933v3.59h-.737V61.72zm8.437 0l3.41 7.316h-.79l-1.149-2.405h-3.15l-1.142 2.405h-.814l3.453-7.316h.182zm-.092 1.556l-1.254 2.646h2.502l-1.248-2.646zm4.391 4.398l.625-.374c.436.805.938 1.207 1.514 1.207.243 0 .475-.058.691-.17a1.218 1.218 0 0 0 .662-1.074 1.24 1.24 0 0 0-.247-.72c-.232-.324-.646-.717-1.254-1.174-.608-.46-.99-.793-1.138-.997a1.825 1.825 0 0 1-.389-1.119c0-.322.077-.612.228-.872.155-.262.369-.47.646-.619a1.933 1.933 0 0 1 1.868.028c.298.172.619.485.949.943l-.597.453c-.271-.365-.507-.606-.7-.722a1.214 1.214 0 0 0-.636-.174c-.294 0-.537.09-.724.266a.878.878 0 0 0-.277.664c0 .159.032.314.099.462.067.15.183.311.359.489.101.09.416.335.945.728.635.468 1.067.885 1.306 1.25.236.365.352.732.352 1.099 0 .53-.204.992-.601 1.381a2.03 2.03 0 0 1-1.469.588c-.449 0-.853-.118-1.211-.356-.359-.233-.696-.63-1.001-1.187zm5.582 0l.625-.374c.436.805.938 1.207 1.514 1.207.243 0 .475-.058.689-.17.217-.114.382-.269.492-.46.116-.193.172-.397.172-.614a1.24 1.24 0 0 0-.247-.72c-.234-.324-.649-.717-1.256-1.174-.608-.46-.988-.793-1.138-.997a1.823 1.823 0 0 1-.387-1.119c0-.322.077-.612.228-.872.155-.262.369-.47.646-.619.275-.152.573-.228.9-.228.343 0 .668.086.968.256.296.172.618.485.949.943l-.597.453c-.27-.365-.509-.606-.702-.722a1.204 1.204 0 0 0-.636-.174c-.292 0-.535.09-.724.266a.883.883 0 0 0-.275.664c0 .159.032.314.099.462.066.15.183.311.359.489.101.09.414.335.945.728.636.468 1.067.885 1.306 1.25.236.365.352.732.352 1.099 0 .53-.204.992-.601 1.381a2.031 2.031 0 0 1-1.471.588c-.447 0-.851-.118-1.209-.356-.359-.233-.696-.63-1.001-1.187zm9.326-5.954l3.41 7.316h-.79l-1.149-2.405h-3.15l-1.142 2.405h-.814l3.455-7.316h.18zm-.092 1.556l-1.254 2.646h2.502l-1.248-2.646zm5.149 5.76V61.72h1.514c1.093 0 1.89.09 2.381.266a3.156 3.156 0 0 1 1.662 1.293c.404.614.604 1.342.604 2.19 0 .734-.161 1.379-.477 1.937-.314.556-.728.966-1.231 1.233-.509.264-1.215.397-2.128.397h-2.325zm.702-.689h.844c1.012 0 1.714-.064 2.1-.191.552-.178.984-.5 1.299-.964.314-.468.475-1.037.475-1.707 0-.709-.172-1.31-.513-1.81a2.597 2.597 0 0 0-1.426-1.029c-.46-.137-1.211-.208-2.266-.208h-.513v5.909zm7.387-6.627h4.194v.717h-3.459v2.291h3.432v.717h-3.432v2.876h3.432v.715h-4.166V61.72zm5.972 7.316V61.72h.161l4.868 5.609V61.72h.717v7.316h-.165l-4.823-5.538v5.538h-.758zM188.5 3.586c0 .509-.127.977-.378 1.413a2.697 2.697 0 0 1-1.029 1.026 2.728 2.728 0 0 1-1.404.384c-.498 0-.966-.127-1.404-.382a2.714 2.714 0 0 1-1.031-1.028 2.732 2.732 0 0 1-.382-1.398c0-.498.129-.971.382-1.411.249-.44.593-.784 1.031-1.033a2.726 2.726 0 0 1 1.404-.378c.5 0 .971.122 1.404.378.429.243.773.59 1.024 1.031.256.438.383.906.383 1.398zm-.387.004a2.4 2.4 0 0 0-.331-1.215 2.429 2.429 0 0 0-.878-.891 2.392 2.392 0 0 0-1.209-.324c-.436 0-.842.11-1.213.324-.38.215-.676.515-.893.891-.219.38-.324.788-.324 1.224 0 .434.105.835.324 1.213.217.374.513.666.893.883a2.39 2.39 0 0 0 2.422 0c.365-.217.663-.515.878-.887.22-.374.331-.78.331-1.218zm-3.597-1.64h1.353c.316 0 .539.032.679.099.142.06.247.163.339.307a.95.95 0 0 1 .129.498c0 .17-.03.309-.092.429-.049.086-.153.183-.311.294.142.066.243.15.296.245.052.095.073.258.073.483v.369c0 .168.034.316.114.427l.051.086h-.573a2.992 2.992 0 0 1-.08-.475l-.019-.4c-.011-.146-.032-.249-.071-.311a.328.328 0 0 0-.157-.127c-.069-.026-.204-.043-.408-.043h-.81v1.355h-.513V1.95zm.514.464v.958h.795c.243 0 .404-.026.489-.079.129-.079.195-.213.195-.404 0-.161-.049-.281-.144-.359-.092-.077-.258-.116-.511-.116h-.824z"/></svg>