<svg xmlns="http://www.w3.org/2000/svg" width="187.717" height="53" viewBox="0 0 187.717 53"><defs><style>.a{fill:#901a29;}</style></defs><path d="M120.217,8.85,114.794,28.4H102.111L107.532,8.85ZM109.988,0h12.685l-1.562,5.633H108.422L109.984,0M10.562,0H24.69l5.681,14.834L34.487,0h6.122L32.754,28.4H18.67L12.914,13.522,8.792,28.4H2.647L10.562,0M42.644,5.635,44.212,0H56.181L54.619,5.635H42.644m17.536,0L61.742,0H73.723L72.161,5.635H60.18M50.6,20.119a2.388,2.388,0,0,0,2.35,3.251h2.308L59.288,8.852H72.047L66.622,28.405H41.949c-3.533,0-5.58-2.941-4.573-6.569l3.6-12.982H53.725L50.6,20.119m88.93-2.982a2.388,2.388,0,0,0-2.35-3.251h-2.308l-4.026,14.518H118.09l5.425-19.553h24.673c3.535,0,5.582,2.941,4.575,6.569l-3.6,12.982H136.414l3.119-11.268M100.494,8.85h3.641L99.409,25.885A3.566,3.566,0,0,1,96.195,28.4h-11.9l1.4-5.035h3.1l2.755-9.937H87.733l5.768-7.8H87.907L81.594,28.4H69.449l6.47-23.336A7.184,7.184,0,0,1,82.391,0h23.715L100.494,8.85"/><path class="a" d="M147.8,32.934H1.392L0,37.973H146.406l1.392-5.039"/><path d="M161.85,8.85a5.51,5.51,0,0,0-4.972,3.893l-3.232,11.77a2.858,2.858,0,0,0,2.812,3.893H169.35l-1.259,4.529h-16.83l-1.4,5.033h25.888a5.507,5.507,0,0,0,4.972-3.893l6.993-25.231H161.85Zm8.9,14.518h-4.662l2.63-9.483h4.662l-2.63,9.483M49.219,50.724h2.017l.5-1.907H49.722Zm3.575,0h2.013l.5-1.907H53.292Zm3.575,0h2.017l.5-1.907H56.872Zm6.843,0h2.276l1-3.681c.148-.566.5-.9.831-.9s.475.2.439.589a1.763,1.763,0,0,1-.051.271l-1.017,3.715h2.3l.992-3.681c.148-.566.5-.9.831-.9s.475.2.439.589A1.753,1.753,0,0,1,71.2,47L70.186,50.72H72.46l1.06-3.846a4.617,4.617,0,0,0,.148-.8c.1-.99-.475-1.568-1.536-1.568A2.291,2.291,0,0,0,70.093,45.7,1.291,1.291,0,0,0,68.65,44.5,2.278,2.278,0,0,0,66.7,45.683l.275-1.015H64.852L63.2,50.733Zm17.025-1.816-2.011-.318a1.2,1.2,0,0,1-1.11.765c-.555,0-.848-.377-.788-1l.036-.248h4.177a3.723,3.723,0,0,0,.106-.612,2.472,2.472,0,0,0-2.626-3,3.912,3.912,0,0,0-4,3.55c-.167,1.736.907,2.844,2.829,2.844a3.814,3.814,0,0,0,3.391-1.981ZM76.6,46.973c.212-.731.663-1.121,1.193-1.121.473,0,.759.331.706.873l-.047.248Zm3.98,3.753h2.276l1-3.681c.161-.579.5-.909.89-.909s.523.2.485.6a1.763,1.763,0,0,1-.051.271l-1.017,3.715h2.276l1.06-3.846a4.565,4.565,0,0,0,.148-.814c.1-.99-.451-1.568-1.526-1.568a2.318,2.318,0,0,0-1.839.966l.812-2.924H82.814l-2.238,8.186Zm6.936,0h2.395l.621-2.278c.331-1.227.68-1.793,1.742-1.793.129,0,.295.011.468.023l.587-2.157a2.9,2.9,0,0,0-.318-.023c-.9,0-1.558.612-2.178,1.922l.464-1.759H89.178l-1.657,6.065Zm12.971-2.878c-.182,1.026-.71,1.594-1.322,1.594a.492.492,0,0,1-.534-.579c.042-.581.689-.96,1.852-1.019ZM100,49.675a4.38,4.38,0,0,0-.108.636,3.29,3.29,0,0,0-.017.424H102.2a3.376,3.376,0,0,1,0-.566,5.853,5.853,0,0,1,.176-.848l.636-2.331a4.354,4.354,0,0,0,.117-.589c.114-1.191-.786-1.875-2.543-1.875a3.648,3.648,0,0,0-3.467,1.7l1.945.39a1.182,1.182,0,0,1,1.1-.684q.708,0,.655.566a1.554,1.554,0,0,1-.066.307c-2.941.036-4.478.8-4.624,2.312a1.537,1.537,0,0,0,1.683,1.757A2.42,2.42,0,0,0,100,49.675Zm3.215,1.06H105.6l2.227-8.186h-2.384Zm5.684-1.922-1.937.271c.1,1.085,1.206,1.818,3.035,1.818,1.888,0,3.1-.909,3.213-2.119.091-.956-.49-1.534-1.759-1.842-.968-.235-1.483-.307-1.456-.672.023-.248.263-.4.687-.4.6,0,.994.225,1.087.589l1.842-.39a2.636,2.636,0,0,0-2.755-1.568c-1.782,0-2.941.9-3.052,2.051-.085.873.487,1.547,1.642,1.806,1.038.237,1.577.284,1.539.672-.028.284-.362.46-.941.46-.659,0-1.028-.225-1.136-.684Zm8.284,1.922h4.342c1.922,0,3.081-.886,3.217-2.289a1.7,1.7,0,0,0-1.271-1.907,2.218,2.218,0,0,0,2.03-1.971c.134-1.38-.748-2.028-2.66-2.028h-3.418ZM119.936,49l.473-1.723h1.06c.718,0,1.06.295,1.015.862s-.506.862-1.31.862Zm.879-3.244.424-1.534h1.1c.543,0,.835.271.795.708-.049.506-.458.826-1.142.826h-1.168Zm10.867,3.162-2.011-.318a1.2,1.2,0,0,1-1.113.765c-.555,0-.848-.377-.788-1l.036-.248h4.177a3.722,3.722,0,0,0,.106-.612,2.472,2.472,0,0,0-2.624-3,3.914,3.914,0,0,0-4,3.55c-.167,1.736.907,2.844,2.829,2.844a3.814,3.814,0,0,0,3.382-1.992Zm-3.636-1.935c.212-.731.663-1.121,1.193-1.121.47,0,.759.331.706.873l-.047.248Zm6.042,1.829-1.937.271c.1,1.085,1.206,1.818,3.035,1.818,1.888,0,3.1-.909,3.211-2.119.091-.956-.49-1.534-1.757-1.842-.968-.235-1.483-.307-1.458-.672.025-.248.263-.4.689-.4.6,0,.994.225,1.087.589l1.842-.39a2.636,2.636,0,0,0-2.755-1.568c-1.782,0-2.941.9-3.052,2.051-.085.873.49,1.547,1.642,1.806,1.038.237,1.577.284,1.541.672-.028.284-.362.46-.941.46-.674,0-1.04-.237-1.151-.687Zm10.867-.023-1.814-.424a1.106,1.106,0,0,1-.979.862c-.483,0-.712-.331-.648-.968.125-1.31.678-2.147,1.257-2.147.413,0,.653.318.6.909v.072l2.066-.271a2.225,2.225,0,0,0-2.543-2.331,3.475,3.475,0,0,0-2.71,1.191,4.192,4.192,0,0,0-1.019,2.395,2.39,2.39,0,0,0,2.609,2.808,3.342,3.342,0,0,0,3.179-2.119Zm.167,1.945h2.272l1-3.681c.161-.579.5-.909.89-.909s.523.2.485.6a1.755,1.755,0,0,1-.051.271l-1.017,3.715h2.276l1.06-3.846a4.563,4.563,0,0,0,.148-.814c.1-.99-.451-1.568-1.524-1.568a2.312,2.312,0,0,0-1.839.966l.812-2.924h-2.282l-2.238,8.186Zm7.031,0h2.384l2.227-8.186h-2.39Zm6.953-7.161h1.439l.481-1.558h-1.439Zm2.087,0h1.45l.481-1.558h-1.449Zm-.826,4.283c-.182,1.026-.708,1.594-1.32,1.594a.492.492,0,0,1-.534-.579c.051-.589.691-.968,1.852-1.028Zm-.485,1.818a4.088,4.088,0,0,0-.108.636,2.9,2.9,0,0,0-.017.424h2.331a3.388,3.388,0,0,1,0-.566,5.723,5.723,0,0,1,.176-.848l.636-2.331a4.318,4.318,0,0,0,.114-.589c.114-1.191-.786-1.875-2.543-1.875a3.647,3.647,0,0,0-3.467,1.7l1.945.39a1.185,1.185,0,0,1,1.1-.684c.473,0,.689.189.653.566a1.54,1.54,0,0,1-.064.307c-2.941.036-4.478.8-4.624,2.312a1.537,1.537,0,0,0,1.683,1.757,2.424,2.424,0,0,0,2.181-1.193Zm5.037-1.723c-.994.271-1.562.79-1.621,1.392a.939.939,0,0,0,.5,1.015c-.752.225-1.155.612-1.208,1.157-.1.992.932,1.483,3.09,1.483,2.348,0,3.649-.767,3.778-2.1a1.363,1.363,0,0,0-.693-1.38,3.919,3.919,0,0,0-1.833-.307c-1.034-.036-1.572.023-1.534-.354.021-.235.212-.4.528-.46.468.047.867.07,1.172.07,1.736,0,2.8-.79,2.918-2a1.4,1.4,0,0,0-.805-1.426,1.045,1.045,0,0,1,1-.5,4.55,4.55,0,0,1,.5.034L171,43.055a4.933,4.933,0,0,0-.538-.036,1.981,1.981,0,0,0-2.119,1.746,4.217,4.217,0,0,0-1.083-.142c-1.806,0-2.967.86-3.077,2.051a1.187,1.187,0,0,0,.737,1.286Zm1.441-1.244a.947.947,0,0,1,.939-.92.557.557,0,0,1,.6.672.922.922,0,0,1-.911.886.552.552,0,0,1-.623-.636Zm-1.447,4.141c1.64.237,2.515-.036,2.469.46-.03.307-.468.46-1.331.46-1.06,0-1.553-.165-1.517-.53.013-.148.131-.269.379-.386Zm11.746-1.941-2.011-.318a1.2,1.2,0,0,1-1.113.765c-.553,0-.848-.377-.788-1l.036-.248h4.177a3.847,3.847,0,0,0,.106-.612,2.472,2.472,0,0,0-2.626-3,3.916,3.916,0,0,0-4,3.55c-.167,1.736.907,2.844,2.829,2.844a3.8,3.8,0,0,0,3.391-1.981Zm-3.636-1.935c.212-.731.663-1.121,1.193-1.121.473,0,.759.331.706.873l-.049.248H173.02"/></svg>