<?xml version="1.0" encoding="UTF-8" standalone="no"?>
<!DOCTYPE svg PUBLIC "-//W3C//DTD SVG 1.1//EN" "http://www.w3.org/Graphics/SVG/1.1/DTD/svg11.dtd">
<svg width="100%" height="100%" viewBox="0 0 626 532" version="1.1" xmlns="http://www.w3.org/2000/svg" xmlns:xlink="http://www.w3.org/1999/xlink" xml:space="preserve" xmlns:serif="http://www.serif.com/" style="fill-rule:evenodd;clip-rule:evenodd;stroke-linecap:round;stroke-linejoin:round;stroke-miterlimit:25;">
    <g id="ArtBoard1" transform="matrix(1,0,0,1,-144.986,-14.4426)">
        <rect x="144.986" y="14.443" width="625.432" height="531.825" style="fill:none;"/>
        <clipPath id="_clip1">
            <rect x="144.986" y="14.443" width="625.432" height="531.825"/>
        </clipPath>
        <g clip-path="url(#_clip1)">
            <g transform="matrix(1,0,0,1,146.986,15.4426)">
                <path d="M65.447,527.268C48.007,500.791 33.789,472.362 23.088,442.573C13.407,415.608 6.668,387.691 2.986,359.302C20.894,341.167 39.831,324.058 59.703,308.058C63.648,304.883 113.306,269.052 118.891,265.475C118.891,265.475 124.09,337.109 130.978,369.117C137.46,399.239 160.216,457.519 160.216,457.519C160.216,457.519 128.919,475.483 114.267,485.988C96.909,498.435 80.584,512.239 65.447,527.268M613.238,382.789C578.945,391.236 550.703,398.714 518.47,411.258C498.901,418.873 479.677,427.334 460.316,435.456C325.868,451.879 193.242,482.717 65.447,527.268M65.447,527.268C93.355,499.558 125.389,475.981 160.216,457.519C233.384,431.216 308.851,411.679 385.65,399.158C460.858,386.9 537.033,381.421 613.238,382.789M118.891,265.475C119.039,286.866 120.612,308.224 123.6,329.41C130.918,381.244 145.665,424.46 160.216,457.519C233.384,431.216 308.851,411.679 385.65,399.158C460.858,386.9 537.033,381.421 613.238,382.789C616.509,354.89 618.664,326.874 619.7,298.806C620.856,267.495 620.616,236.149 618.982,204.859C550.964,202.493 482.862,204.394 415.086,210.553C376.055,214.101 337.167,219.059 298.501,225.417C237.913,235.383 177.947,248.758 118.891,265.475ZM396.419,212.359C396.419,212.359 415.443,141.386 426.009,108.817C436.076,77.784 459.813,16.944 459.813,16.944C466.976,16.994 474.788,18.001 481.884,18.966C486.24,19.559 490.553,20.65 494.667,22.189C497.021,23.07 499.109,24.589 501.075,26.145C508.562,32.071 498.784,46.037 496.931,51.128C493.516,60.514 490.138,69.941 487.598,79.596C485.116,102.063 484.687,131.237 503.393,147.922C514.416,157.753 529.113,158.672 541.484,165.815C555.69,174.017 564.485,188.276 568.241,203.887M396.419,212.359C413.612,142.304 436.174,73.652 463.906,7.001L446.675,3.443C417.945,71.557 395.438,142.089 379.425,214.192M362.091,216.248C367.469,153.142 378.965,90.697 396.419,29.776C379.643,38.676 363.774,49.163 349.035,61.092C331.412,75.36 315.512,91.601 301.651,109.489C299.487,125.787 298.05,142.173 297.343,158.597C296.385,180.874 296.772,203.187 298.501,225.417M84.749,289.467L119,265L233.75,237.414C229.423,232.58 225.065,226.754 221.241,219.805C204.773,189.881 209.141,159.012 211.908,145.786C216.359,125.222 220.428,104.579 224.113,83.867C226.887,68.262 228.352,58.725 222.677,53.263C214.985,45.86 199.182,50.756 191.087,53.263C170.491,59.643 156.482,73.229 148.011,83.867C151.805,115.74 146.389,138.666 140.831,153.615C124.808,196.707 92.368,214.444 85.549,262.508C84.29,271.439 84.021,280.479 84.749,289.467Z" style="fill:rgb(244,243,238);stroke:rgb(63,33,8);stroke-width:8px;"/>
            </g>
        </g>
    </g>
</svg>
