<svg xmlns="http://www.w3.org/2000/svg" viewBox="0 0 512 512">
  <path fill="#b1ddf7" d="M59.974 40.303h392.047v420.652H59.974z"/>
  <path fill="#f1f1f2" d="M42.113 22.439v430.984h35.721V254.185h160.983v199.237h35.721V254.185h159.628v199.237h35.721V22.439H42.113zm35.721 196.025V58.16h160.983v160.305H77.834v-.001zm196.704 0V58.16h159.628v160.305H274.538v-.001z"/>
  <path fill="#9ec6dd" d="M256 40.303h196.029v420.652H256z"/>
  <path fill="#d8d8d9" d="M274.538 453.423V254.185h159.628v199.237h35.721V22.439H256v430.984h18.538zm0-234.959V58.16h159.628v160.305H274.538v-.001z"/>
  <path fill="#cbcbce" d="M0 432.351h512v57.21H0z"/>
  <path fill="#b7b7b9" d="M0 460.956h512v28.605H0z"/>
</svg>
